<svg t="1709270519639" class="icon" viewBox="0 0 1024 1024" version="1.1" xmlns="http://www.w3.org/2000/svg" p-id="14812" width="64" height="64"><path d="M690.36781191 328.77162839H340.26022403c-9.72111939 0-17.67476253-7.95364315-17.67476254-17.67476254V126.24830768c0-9.72111939 7.95364315-17.67476253 17.67476254-17.67476254h350.25487757c9.72111939 0 17.67476253 7.95364315 17.67476254 17.67476254v184.84855817c-0.1472897 9.72111939-8.10093283 17.67476253-17.82205223 17.67476254z" fill="#8a8a8a" p-id="14813"></path><path d="M690.36781191 336.13611278H340.26022403c-13.84523065 0-25.03924691-11.19401627-25.03924692-25.03924693V126.24830768c0-13.84523065 11.19401627-25.03924691 25.03924692-25.03924693h350.25487757c13.84523065 0 25.03924691 11.19401627 25.03924693 25.03924693v184.84855817c-0.1472897 13.84523065-11.34130596 25.03924691-25.18653662 25.03924693zM340.26022403 115.93802953c-5.74429781 0-10.31027814 4.56598032-10.31027814 10.31027815v184.84855817c0 5.74429781 4.56598032 10.31027814 10.31027814 10.31027814h350.25487757c5.74429781 0 10.31027814-4.56598032 10.31027814-10.31027814V126.24830768c0-5.74429781-4.56598032-10.31027814-10.31027814-10.31027815H340.26022403z" fill="#505050" p-id="14814"></path><path d="M888.3251523 865.05338163H131.40344674c-48.60559698 0-88.37381268-39.7682157-88.37381268-88.37381267V403.3002104c0-48.60559698 39.7682157-88.37381268 88.37381268-88.37381267h756.77441588c48.60559698 0 88.37381268 39.7682157 88.37381267 88.37381267v373.37935856c0.1472897 48.60559698-39.62092601 88.37381268-88.22652299 88.37381267z" fill="#8a8a8a" p-id="14815"></path><path d="M888.3251523 872.41786603H131.40344674c-52.72970823 0-95.73829706-43.00858883-95.73829705-95.73829707V403.3002104c0-52.72970823 43.00858883-95.73829706 95.73829705-95.73829706h756.77441588c52.72970823 0 95.73829706 43.00858883 95.73829706 95.73829706v373.37935856c0.1472897 52.87699792-42.86129915 95.73829706-95.59100738 95.73829707zM131.40344674 322.29088211c-44.6287754 0-81.00932829 36.38055289-81.00932827 81.00932829v373.37935856c0 44.6287754 36.38055289 81.00932829 81.00932827 81.00932829h756.77441588c44.6287754 0 81.00932829-36.38055289 81.00932828-81.00932829V403.3002104c0-44.6287754-36.38055289-81.00932829-81.00932828-81.00932829H131.40344674z" fill="#505050" p-id="14816"></path><path d="M180.45091278 363.5319947c-26.65943349 0-48.60559698-21.79887379-48.60559697-48.60559697 0-26.65943349 21.79887379-48.60559698 48.60559697-48.60559696 26.65943349 0 48.60559698 21.79887379 48.60559698 48.60559696-0.1472897 26.65943349-21.94616349 48.60559698-48.60559698 48.60559697z" fill="#FFFFFD" p-id="14817"></path><path d="M180.45091278 370.89647909c-30.78354474 0-55.97008134-25.03924691-55.97008135-55.97008136s25.03924691-55.97008134 55.97008135-55.97008136 55.97008134 25.03924691 55.97008137 55.97008136-25.18653662 55.97008134-55.97008137 55.97008136z m0-97.21119394c-22.68261193 0-41.24111259 18.55850066-41.24111257 41.24111258s18.55850066 41.24111259 41.24111257 41.24111258 41.24111259-18.55850066 41.24111259-41.24111258-18.55850066-41.24111259-41.24111259-41.24111258z" fill="#505050" p-id="14818"></path><path d="M43.02963406 412.87404011h933.52204123v354.23169914H43.02963406z" fill="#8a8a8a" p-id="14819"></path><path d="M976.69896498 774.47022365H43.02963406c-4.12411126 0-7.36448439-3.24037312-7.36448437-7.3644844V412.87404011c0-4.12411126 3.24037312-7.36448439 7.36448437-7.36448438h933.52204123c4.12411126 0 7.36448439 3.24037312 7.36448439 7.36448438v354.23169914c0.1472897 4.12411126-3.24037312 7.36448439-7.2171947 7.3644844z m-926.30484651-14.72896879h918.79307243V420.23852452H50.39411847v339.50273034z" fill="#505050" p-id="14820"></path><path d="M514.06205563 590.06353453m-325.36292032 0a325.36292032 325.36292032 0 1 0 650.72584066 0 325.36292032 325.36292032 0 1 0-650.72584066 0Z" fill="#FFFFFD" p-id="14821"></path><path d="M514.06205563 922.79093925c-88.81568174 0-172.47622441-34.61307664-235.2216314-97.50577332s-97.50577332-146.40594965-97.50577332-235.2216314 34.61307664-172.47622441 97.50577332-235.2216314 146.40594965-97.50577332 235.2216314-97.50577333 172.47622441 34.61307664 235.2216314 97.50577333 97.50577332 146.40594965 97.50577332 235.2216314-34.61307664 172.32893472-97.35848362 235.2216314-146.40594965 97.50577332-235.3689211 97.50577332z m0-650.72584067c-175.27472846 0-317.99843594 142.72370747-317.99843593 317.99843595s142.72370747 317.99843594 317.99843593 317.99843594S832.06049157 765.33826301 832.06049157 590.06353453c0-175.42201817-142.57641778-317.99843594-317.99843594-317.99843595z" fill="#505050" p-id="14822"></path><path d="M514.06205563 590.06353453m-261.29190615 0a261.29190615 261.29190615 0 1 0 522.5838123 0 261.29190615 261.29190615 0 1 0-522.5838123 0Z" fill="#8a8a8a" p-id="14823"></path><path d="M514.06205563 590.06353453m-150.23548156 0a150.23548155 150.23548155 0 1 0 300.4709631 0 150.23548155 150.23548155 0 1 0-300.4709631 0Z" fill="#505050" p-id="14824"></path><path d="M514.06205563 747.66350048c-86.90091581 0-157.59996593-70.69905013-157.59996593-157.59996595s70.69905013-157.59996593 157.59996593-157.59996594 157.59996593 70.69905013 157.59996594 157.59996594-70.69905013 157.59996593-157.59996594 157.59996595z m0-300.6182528c-78.79998297 0-142.87099716 64.0710142-142.87099716 142.87099716s64.0710142 142.87099716 142.87099716 142.87099715 142.87099716-64.0710142 142.87099715-142.87099715-64.0710142-142.87099716-142.87099715-142.87099716z" fill="#505050" p-id="14825"></path><path d="M514.06205563 590.06353453m-108.99436896 0a108.99436897 108.99436897 0 1 0 217.98873794 0 108.99436897 108.99436897 0 1 0-217.98873794 0Z" fill="#8a8a8a" p-id="14826"></path><path d="M436.58767986 595.80783235c-5.74429781 0-10.31027814-4.56598032-10.31027815-10.31027814 0-46.39625165 37.70616007-84.10241173 84.10241172-84.10241172 5.74429781 0 10.31027814 4.56598032 10.31027815 10.31027814s-4.56598032 10.31027814-10.31027815 10.31027814c-35.05494569 0-63.48185543 28.42690974-63.48185544 63.48185544 0 5.59700814-4.71327001 10.31027814-10.31027813 10.31027814zM520.83738127 678.73192658c-5.74429781 0-10.31027814-4.56598032-10.31027814-10.31027814s4.56598032-10.31027814 10.31027814-10.31027817c35.05494569 0 63.48185543-28.42690974 63.48185544-63.48185542 0-5.74429781 4.56598032-10.31027814 10.31027814-10.31027814s10.31027814 4.56598032 10.31027815 10.31027814c0 46.24896197-37.70616007 84.10241173-84.10241173 84.10241173z" fill="#FFFFFF" p-id="14827"></path><path d="M916.01561361 443.65758485h-79.09456234c-4.12411126 0-7.36448439-3.24037312-7.36448439-7.36448438v-46.8381207c0-4.12411126 3.24037312-7.36448439 7.36448439-7.3644844h79.09456234c4.12411126 0 7.36448439 3.24037312 7.36448438 7.3644844v46.8381207c0 4.12411126-3.24037312 7.36448439-7.36448438 7.36448438z" fill="#8a8a8a" p-id="14828"></path><path d="M916.01561361 451.02206925h-79.09456234c-8.10093283 0-14.72896878-6.62803595-14.72896878-14.72896878v-46.8381207c0-8.10093283 6.62803595-14.72896878 14.72896878-14.72896878h79.09456234c8.10093283 0 14.72896878 6.62803595 14.72896877 14.72896878v46.8381207c0 8.10093283-6.48074626 14.72896878-14.72896877 14.72896878z m-78.94727267-61.56708948v46.8381207h79.09456237v-46.8381207h-79.09456237z" fill="#505050" p-id="14829"></path><path d="M596.39699111 213.73838222H434.23104483c-14.72896878 0-26.65943349-12.0777544-26.65943349-26.65943349v-3.24037312c0-14.72896878 12.0777544-26.65943349 26.65943349-26.6594335h162.16594628c14.72896878 0 26.65943349 12.0777544 26.6594335 26.6594335v3.24037312c0 14.72896878-11.93046471 26.65943349-26.6594335 26.65943349z" fill="#FFFFFD" p-id="14830"></path><path d="M596.39699111 221.10286661H434.23104483c-18.85308003 0-34.02391789-15.31812754-34.02391786-34.02391788v-3.24037312c0-18.85308003 15.31812754-34.02391789 34.02391786-34.02391788h162.16594628c18.85308003 0 34.02391789 15.31812754 34.02391787 34.02391788v3.24037312c0 18.70579035-15.17083783 34.02391789-34.02391787 34.02391788z m-162.16594628-56.5592401c-10.60485751 0-19.2949491 8.69009158-19.29494909 19.2949491v3.24037312c0 10.60485751 8.69009158 19.2949491 19.29494909 19.2949491h162.16594628c10.60485751 0 19.2949491-8.69009158 19.29494908-19.2949491v-3.24037312c0-10.60485751-8.69009158-19.2949491-19.29494908-19.2949491H434.23104483z" fill="#505050" p-id="14831"></path></svg>